<svg width="212" height="40" viewBox="0 0 212 40" fill="none" xmlns="http://www.w3.org/2000/svg">
<g id="Group">
<g id="LETTER-K2">
<path id="Vector" d="M200.276 1.60001C199.676 2.2604 199.376 3.04085 199.556 3.34103C199.736 3.70124 197.875 5.92253 195.354 8.32392C189.77 13.7871 189.29 14.5676 190.671 16.1285C191.691 17.2691 191.751 17.2091 192.772 15.5881C193.312 14.6276 195.594 12.0461 197.875 9.82479C202.318 5.44225 203.218 5.38221 203.218 9.52462C203.218 11.8059 203.278 11.926 204.719 11.5658C206.58 11.0855 208.201 9.70472 209.282 7.54347C210.122 5.92253 210.122 5.86249 208.561 5.86249C207.541 5.86249 206.16 5.022 204.359 3.16092C202.918 1.66005 201.657 0.459351 201.537 0.459351C201.417 0.459351 200.817 0.999665 200.276 1.60001Z" fill="black"/>
<path id="Vector_2" d="M182.506 19.9707V37.681H185.208H187.849L188.029 29.3361L188.209 20.9913L196.914 29.3361C204.419 36.5403 205.86 37.681 207.541 37.681C208.561 37.681 209.642 37.3808 209.822 37.0206C210.062 36.6604 210.662 36.5403 211.263 36.7204C211.803 36.9005 208.021 33.0583 202.918 28.1354C197.815 23.2126 193.432 19.3103 193.132 19.4904C192.892 19.6105 192.292 19.4904 191.872 19.1302C191.451 18.77 190.431 18.5299 189.65 18.5899L188.209 18.77L188.029 10.4852L187.849 2.2604H185.208H182.506V19.9707Z" fill="black"/>
</g>
<path id="LETTER-C" d="M159.813 1.66006C156.151 2.44051 152.008 5.14208 149.127 8.68414C147.146 11.0855 146.485 12.5264 145.885 15.7082C144.984 20.451 145.825 25.9742 147.866 28.9759C150.988 33.5986 153.689 35.3997 153.689 32.8782C153.689 32.0977 153.99 31.7976 154.59 32.0977C155.43 32.3979 155.43 32.518 154.53 33.5386C153.569 34.6192 153.809 35.8799 155.01 35.8799C155.37 35.8799 156.031 35.3997 156.511 34.7993C157.231 33.8988 157.291 33.9588 156.991 35.5798L156.631 37.3808L157.652 36C158.852 34.3791 159.993 34.199 159.153 35.8199C158.552 36.9005 158.792 37.681 159.813 37.681C160.053 37.681 160.293 37.1407 160.293 36.4803C160.293 35.8199 160.713 35.2796 161.254 35.2796C161.914 35.2796 162.094 35.6398 161.794 36.4803C161.494 37.3208 161.674 37.681 162.334 37.681C162.875 37.681 163.295 37.2607 163.295 36.7805C163.295 36.3002 163.715 35.8799 164.195 35.8799C164.676 35.8799 165.096 36.3002 165.096 36.7805C165.096 37.9812 166.297 37.9211 167.257 36.6004C168.038 35.6398 168.038 35.6398 168.098 36.6004C168.098 37.2007 168.398 37.681 168.698 37.681C169.058 37.681 169.298 37.2007 169.358 36.6004C169.358 36 169.539 35.8799 169.719 36.3002C170.139 37.3808 171.099 37.2607 171.099 36.1801C171.099 34.9194 172.18 35.0395 172.48 36.3002C172.66 37.2007 172.84 37.1407 173.381 35.8799C173.861 34.7993 174.041 34.6792 174.041 35.3997C174.101 36.6004 174.581 36.7204 175.842 35.94C176.323 35.6398 176.443 35.0995 176.202 34.6192C175.842 34.0789 176.022 33.9588 176.743 34.259C177.523 34.5592 177.703 34.4391 177.463 33.5986C177.283 33.0583 176.983 31.8576 176.743 30.897C176.563 29.9965 176.142 29.2761 175.842 29.2761C175.182 29.2761 175.182 29.4562 175.902 31.3173C176.202 32.1578 176.262 32.8782 175.962 32.8782C175.662 32.8782 175.302 32.3379 175.122 31.6775C174.942 31.0171 174.521 30.4768 174.161 30.4768C173.741 30.4768 173.621 31.0772 173.861 31.9777C174.101 32.8782 173.981 33.4785 173.561 33.4785C173.201 33.4785 172.901 32.9382 172.901 32.2178C172.901 31.5574 172.66 31.1972 172.3 31.3773C172 31.5574 171.7 32.2779 171.7 32.9382C171.7 33.5386 171.46 34.0789 171.099 34.0789C170.799 34.0789 170.499 33.6587 170.499 33.1784C170.499 32.6981 170.199 32.2779 169.839 32.2779C169.479 32.2779 169.298 32.8182 169.479 33.4785C169.659 34.1389 169.539 34.6792 169.238 34.6792C168.938 34.6792 168.698 34.259 168.698 33.7787C168.698 33.2984 168.398 32.8782 168.038 32.8782C167.677 32.8782 167.497 33.2984 167.677 33.7787C167.918 34.259 167.798 34.7993 167.557 34.9794C167.257 35.0995 166.897 34.7393 166.717 34.0789C166.297 32.518 165.096 32.518 165.096 34.0789C165.096 34.8594 164.796 35.1595 164.195 34.9194C163.715 34.6792 163.295 34.1389 163.295 33.6587C163.295 32.8782 163.115 32.8782 162.394 33.4785C161.734 34.0189 161.494 34.0189 161.494 33.5386C161.494 33.1183 161.194 32.9983 160.834 33.1784C160.473 33.4185 159.813 33.1183 159.393 32.518C158.612 31.4974 158.552 31.4974 158.492 32.3979C158.492 33.0583 158.192 33.2984 157.652 33.1183C157.171 32.9382 156.931 32.3979 157.051 31.9777C157.231 31.5574 157.111 31.0171 156.751 30.777C156.391 30.5969 156.091 30.7169 156.091 31.0772C156.091 31.4374 155.791 31.5574 155.49 31.3773C155.13 31.1372 155.01 30.777 155.19 30.4768C155.37 30.2367 155.07 29.6363 154.53 29.2161C152.969 27.9553 151.228 23.993 150.868 20.8112C150.207 15.408 153.749 9.52463 158.852 7.36337C162.394 5.92253 167.858 6.10264 172.18 7.84365L175.902 9.34452V6.70299C175.902 4.18152 175.842 4.06145 173.141 2.86075C169.899 1.47995 163.535 0.879602 159.813 1.66006Z" fill="black"/>
<path id="LETTER-I" d="M134.418 1.47994C133.818 2.20036 133.518 5.32218 133.277 13.3068C133.037 22.0119 132.797 24.4733 132.017 25.674C131.476 26.5145 130.876 28.9759 130.696 31.1372C130.456 34.9194 130.516 35.2196 131.837 35.8199C132.617 36.1801 133.277 36.8405 133.277 37.3808C133.277 38.0412 133.938 38.2813 135.739 38.2813C137.66 38.2813 138.26 38.0412 138.5 37.0806C138.681 36.4803 139.341 35.7599 139.941 35.5798C140.962 35.2196 141.022 34.7993 140.722 31.7976C140.542 29.9365 140.061 27.2949 139.581 25.9742C139.101 24.5934 138.681 19.7306 138.5 14.2674C138.14 2.6206 136.82 -1.46177 134.418 1.47994Z" fill="black"/>
<g id="LETTER-R">
<path id="Vector_3" d="M99.6579 19.0702V37.681H102.359H105.061V29.6964C105.121 23.993 105.361 21.3515 105.962 20.2709C106.802 18.77 106.802 18.77 106.862 20.0908C106.862 22.192 108.543 21.7717 109.203 19.4904L109.744 17.5693L109.804 19.7906C109.864 20.9913 110.164 22.192 110.584 22.4321C111.065 22.7323 111.185 22.132 110.944 20.2108C110.584 17.7494 110.944 18.0496 111.905 21.1114C112.205 22.0119 112.445 22.132 112.986 21.5916C113.526 21.0513 113.466 20.3909 112.685 18.77C111.725 16.7288 111.545 16.6688 108.363 16.6688H105.061V11.0855C105.061 7.96372 105.181 5.32219 105.361 5.20212C105.481 5.02201 107.282 5.08205 109.324 5.26215C112.385 5.56233 113.286 5.92254 114.427 7.30334C116.528 9.70473 116.348 12.7065 114.006 14.8677C112.265 16.5487 112.205 16.6688 113.166 18.4098C114.126 20.2709 115.447 20.8112 116.228 19.6105C116.408 19.2503 116.228 18.71 115.807 18.4098C115.267 17.9895 115.507 17.9895 116.648 18.2297C118.569 18.6499 118.869 17.5693 116.948 17.089C116.228 16.8489 115.747 16.5487 115.987 16.3686C116.168 16.1885 117.008 16.3086 117.849 16.6087C119.71 17.3292 120.61 16.4286 119.049 15.5281C118.089 14.9878 118.089 14.9278 119.349 14.8677C120.07 14.8677 120.67 14.5676 120.67 14.2674C120.67 13.9072 120.01 13.667 119.169 13.667C118.329 13.667 117.668 13.3669 117.668 13.0667C117.668 12.7065 118.509 12.4663 119.469 12.4663C121.571 12.4663 121.871 11.4457 119.95 11.0855L118.569 10.8454L119.95 10.7253C120.67 10.7253 121.27 10.3051 121.27 9.8248C121.27 9.28449 120.73 9.10438 119.65 9.28449C118.029 9.46459 118.029 9.46459 119.349 8.80421C120.07 8.38397 120.67 7.84365 120.67 7.54348C120.67 7.2433 120.07 7.18327 119.349 7.42341C118.029 7.78362 118.029 7.78362 119.049 6.64295C120.43 5.02201 119.71 4.4817 117.728 5.74243L116.168 6.70299L117.668 5.02201C119.169 3.281 119.169 3.281 117.788 3.64121C117.068 3.82131 116.588 3.70124 116.828 3.40107C117.008 3.1009 116.948 2.56058 116.708 2.20037C116.468 1.78013 115.807 2.14034 114.847 3.22097C113.766 4.4817 113.586 4.60177 114.006 3.64121C114.366 2.92079 114.667 2.0803 114.667 1.72009C114.667 0.45936 113.706 1.05971 112.986 2.68065L112.265 4.36163L112.565 2.68065C112.926 0.6995 111.845 0.519395 111.065 2.38048C110.584 3.70124 110.524 3.70124 110.524 2.0803C110.464 -0.381128 108.663 -0.0809535 108.603 2.38048L108.543 4.36163L108.123 2.56058C107.643 0.0991512 105.661 -0.261058 105.601 2.0803L105.541 3.76128L104.941 2.0803C104.461 0.6995 104.04 0.45936 101.999 0.45936H99.6579V19.0702Z" fill="black"/>
<path id="Vector_4" d="M113.766 21.8918C112.806 22.3721 111.905 22.9124 111.785 22.9724C111.665 23.0925 112.686 24.2932 114.006 25.734C115.387 27.1749 116.468 28.6157 116.468 28.9159C116.468 29.9365 119.169 33.4785 119.89 33.4785C120.31 33.4785 120.49 33.8388 120.37 34.199C120.19 34.6192 120.55 35.5798 121.15 36.3602C122.051 37.5609 122.531 37.621 125.053 37.3208C127.454 36.9606 127.814 36.7805 127.154 36.1201C126.734 35.6998 125.413 35.0995 124.272 34.7993L122.171 34.199L124.212 34.1389C126.974 34.0789 126.073 33.3585 122.291 32.518L119.169 31.7976L121.751 31.7375C125.053 31.6775 124.512 30.5368 121.09 30.3567L118.569 30.2967L120.85 30.0566C123.672 29.7564 123.552 28.5557 120.61 28.0154C119.229 27.7752 119.049 27.5951 119.95 27.5351C120.79 27.5351 121.21 27.2349 120.91 26.8147C120.67 26.3944 119.529 26.2744 118.029 26.4545L115.567 26.7546L117.849 26.0943C120.31 25.3738 120.79 24.4733 118.749 24.4733C117.728 24.4733 117.608 24.2932 118.209 23.933C119.409 23.1525 118.029 22.5522 116.047 22.9724C114.366 23.3326 114.366 23.3326 115.747 22.5522C116.468 22.0719 116.888 21.5316 116.708 21.2915C116.108 20.6911 115.867 20.7511 113.766 21.8918ZM123.852 36.9005C123.432 37.0206 122.711 37.0206 122.351 36.9005C121.931 36.7204 122.231 36.6004 123.072 36.6004C123.912 36.6004 124.212 36.7204 123.852 36.9005Z" fill="black"/>
</g>
<path id="LETTER-B" d="M69.4604 0.8796C69.2202 1.0597 69.0401 9.46459 69.0401 19.4904V37.681H76.7246C80.927 37.681 85.3096 37.4409 86.3902 37.0806C90.2925 36 93.6544 31.6775 93.6544 27.7752C93.6544 23.8129 91.3731 20.8712 87.2907 19.4904L84.9494 18.6499L86.8705 17.6293C90.4126 15.8283 92.2736 11.3857 91.133 7.60351C90.1724 4.18152 87.2907 1.78012 83.5085 1.0597C79.9064 0.399321 70.0607 0.219216 69.4604 0.8796ZM83.0283 5.50229C84.229 5.44225 84.5291 5.62236 84.1089 6.0426C83.6286 6.52288 83.8087 7.06319 84.6492 7.96372C85.3096 8.68414 85.97 10.125 86.1501 11.2056C86.3302 12.7065 85.97 13.4269 84.4691 14.8677C83.3885 15.8883 81.9476 16.8489 81.2272 17.029C78.7057 17.6894 78.7658 21.0513 81.3473 21.7117C83.0883 22.132 86.4502 25.9742 86.4502 27.5351C86.4502 28.1955 85.7899 29.3361 85.0094 30.0566C83.9288 31.0772 83.6886 31.6775 84.1089 32.458C84.5291 33.1183 84.4691 33.4785 84.0489 33.4785C83.7487 33.4785 83.4485 33.2384 83.4485 32.9382C83.4485 32.578 82.2478 32.7581 80.7469 33.2384C78.2255 34.1389 77.9853 34.1389 76.2443 32.8782C74.5033 31.6775 74.4433 31.4374 74.4433 27.1749C74.4433 23.0925 74.5633 22.6122 75.9441 21.7117C77.9253 20.3909 77.9853 18.0496 76.0042 17.2691C74.5633 16.7288 74.5033 16.4887 74.5633 11.866C74.5633 7.4234 74.6834 6.94312 76.1242 5.8625C77.3249 4.90194 78.1054 4.72183 79.4862 5.08204C80.5068 5.32218 82.1277 5.50229 83.0283 5.50229Z" fill="black"/>
<path id="LETTER-U" d="M32.4188 11.6258V22.252L28.0963 21.9518L23.7138 21.5916L27.9162 22.9124C31.5183 24.0531 31.8785 24.2932 30.6178 24.6534C29.7773 24.8935 28.3365 25.0737 27.3759 25.0737C26.4153 25.0737 25.755 25.2538 25.9351 25.4339C26.2352 25.734 28.3365 25.9141 34.2199 26.2744C34.7002 26.3344 33.6796 26.9948 31.9986 27.7752C30.2576 28.5557 28.8167 29.3361 28.8167 29.4562C28.8167 29.5763 30.2576 29.4562 31.9986 29.2161C37.5818 28.4356 37.6419 28.4356 35.9609 30.2967C32.779 33.8387 32.719 34.1389 35.6607 32.518C37.2216 31.6175 38.6625 31.0771 38.8426 31.2572C39.0227 31.4974 38.7225 32.7581 38.1822 34.1389L37.1616 36.6604L39.8632 34.4391L42.6248 32.2178L42.6848 35.6998V39.1819L44.0056 36.5403C44.726 35.0995 45.6265 33.8988 45.9267 33.9588C46.2869 33.9588 46.8872 35.0995 47.3675 36.4803C48.268 39.1819 49.2286 38.8216 49.2286 35.7599C49.2286 33.2984 50.1892 33.2384 51.63 35.5798C52.3504 36.7204 53.0708 37.681 53.2509 37.681C53.431 37.681 53.431 36.6004 53.2509 35.2796C52.9508 33.0583 53.4911 32.0977 54.3316 33.4785C54.5117 33.7787 55.2321 34.3791 55.8324 34.6792C56.9131 35.2796 56.9731 35.1595 56.4328 33.7787C55.4722 31.2572 55.7124 30.777 57.2132 32.1578C59.1344 33.9588 59.7947 33.8387 58.534 31.9176C57.5735 30.4168 57.5735 30.3567 58.7742 30.777C60.0949 31.1972 60.4551 30.5368 59.4345 29.5162C58.2338 28.3155 59.4345 26.8747 61.5958 26.8747H63.637V13.9672V1.0597H60.9954H58.2939L58.1138 14.1473C57.8736 29.6963 57.8736 29.7564 52.2904 31.3173C45.3864 33.2384 37.822 30.4768 37.822 25.9742C37.822 23.6929 38.7225 23.2726 43.8255 23.3326C46.3469 23.3927 46.7071 23.5127 45.3263 23.8129C42.0845 24.4733 43.045 28.4356 46.3469 27.9553C47.4276 27.8353 47.7878 27.355 47.9078 25.8541C48.0879 23.993 48.208 23.873 50.3092 24.1731L52.5305 24.4733L50.4293 23.5127C49.2886 22.9724 46.5871 22.4321 44.4258 22.252C37.1016 21.7717 37.822 22.9124 37.822 11.2656V1.0597H35.1204H32.4188V11.6258ZM47.4276 26.2744C47.4276 26.5745 47.1874 26.8747 46.8272 26.8747C46.527 26.8747 46.2269 26.5745 46.2269 26.2744C46.2269 25.9141 46.527 25.674 46.8272 25.674C47.1874 25.674 47.4276 25.9141 47.4276 26.2744Z" fill="black"/>
<g id="LETTER-K">
<path id="Vector_5" d="M20.652 0.939621C20.1717 1.29983 11.6468 14.6276 10.8063 16.3686C10.6262 16.7288 9.60558 18.2897 8.46491 19.9106C5.94345 23.5127 5.46317 26.6946 7.38429 26.9948C8.34484 27.1148 8.76509 27.6551 8.88516 28.7958C9.1253 30.7169 9.18533 30.777 10.8063 29.7564C12.127 28.9159 13.0276 29.6363 17.29 35.0995C19.3913 37.801 20.652 38.3414 21.2523 36.7805C21.4325 36.3002 22.2729 35.5798 23.1134 35.2796C24.014 34.9194 24.4942 34.4391 24.3141 34.0789C24.134 33.7787 24.1941 33.0583 24.4942 32.4579C24.9145 31.7375 24.6743 31.1372 23.3536 30.0565C22.393 29.2761 20.7721 27.2949 19.7515 25.614C18.3106 23.3927 17.6503 22.8524 17.0499 23.3326C16.5096 23.8129 16.0293 23.5728 15.3089 22.4321C14.4084 21.1113 14.1082 20.9913 12.9675 21.5916L11.7068 22.252L12.9075 20.8112C13.5679 20.0307 14.1682 19.2503 14.2283 19.1902C14.4084 18.83 16.3295 20.0307 16.2695 20.451C16.0893 21.7717 16.3295 22.0719 17.5302 22.0719C18.7309 22.0719 18.7309 22.0119 17.8304 20.9913C16.5696 19.6105 16.5696 18.83 17.7703 17.6293C18.4907 16.8489 18.971 16.7888 19.9916 17.3291C21.2523 18.0496 21.2523 17.9895 20.2918 16.8489C19.6914 16.1885 19.2112 15.408 19.2112 15.0478C19.2112 14.6876 20.592 11.926 22.2729 8.86423C25.2146 3.58116 25.2747 3.34102 24.2541 2.20035C23.7138 1.60001 23.1134 1.17976 22.9333 1.35987C22.7532 1.53997 22.333 1.4199 21.9728 1.05969C21.5525 0.759517 21.0122 0.699482 20.652 0.939621Z" fill="black"/>
<path id="Vector_6" d="M0.12007 19.4904L0.300174 37.3808H2.70157H5.10297L5.28307 19.4904L5.40314 1.66005H2.70157H0L0.12007 19.4904Z" fill="black"/>
</g>
</g>
</svg>
